<svg width="149" height="46" viewBox="0 0 149 46" fill="none" xmlns="http://www.w3.org/2000/svg">
<circle cx="5.67019" cy="17.8684" r="5.31082" fill="#84F8CF"/>
<circle cx="5.67019" cy="17.8684" r="5.31082" fill="#E54D57"/>
<circle cx="16.7874" cy="27.5965" r="5.31082" fill="#C1FDE8"/>
<circle cx="16.7874" cy="27.5965" r="5.31082" fill="#07D6A5"/>
<circle cx="16.3245" cy="13.3523" r="5.31082" fill="#59C59E"/>
<circle cx="16.3245" cy="13.3523" r="5.31082" fill="#2395FF"/>
<circle cx="5.67019" cy="29.4519" r="5.31082" fill="#A4FCDE"/>
<circle cx="5.67019" cy="29.4519" r="5.31082" fill="#A8DD12"/>
<circle cx="5.67019" cy="40.5349" r="5.31082" fill="#84F8CF"/>
<circle cx="5.67019" cy="40.5349" r="5.31082" fill="#FF7A00"/>
<circle cx="16.7874" cy="40.4544" r="5.31082" fill="#A4FCDE"/>
<circle cx="16.7874" cy="40.4544" r="5.31082" fill="#FF8E95"/>
<circle cx="26.7874" cy="6.28787" r="5.31082" fill="#4AA083"/>
<circle cx="26.7874" cy="6.28787" r="5.31082" fill="#7F52FF"/>
<circle cx="27.4417" cy="23.0804" r="5.31082" fill="#59C59E"/>
<circle cx="27.4417" cy="23.0804" r="5.31082" fill="#BB34FB"/>
<circle cx="27.9075" cy="40.4324" r="5.31082" fill="#84F8CF"/>
<circle cx="27.9075" cy="40.4324" r="5.31082" fill="#F0D800"/>
<path d="M47.5375 26.9859C50.1292 26.9859 51.733 25.7606 51.733 23.6826C51.733 22.0434 50.4935 20.9092 48.8126 20.727V20.6194C50.0795 20.3959 51.1203 19.3279 51.1203 17.9867C51.1203 16.1736 49.649 15.0394 47.4464 15.0394H43.1489V26.9859H47.5375ZM44.4049 16.0411H47.2311C48.8623 16.0411 49.856 16.8276 49.856 18.1688C49.856 19.5597 48.8044 20.3048 46.9578 20.3048H44.4049V16.0411ZM44.4049 25.9842V21.4116H47.2394C49.3177 21.4116 50.4521 22.1096 50.4521 23.6247C50.4521 25.1563 49.384 25.9842 47.3801 25.9842H44.4049Z" fill="white"/>
<path d="M54.1597 18.4643H55.4075C55.424 16.9492 56.4756 15.7845 58.0323 15.7845C59.5642 15.7845 60.5827 16.8359 60.5827 18.2185C60.5827 19.3031 60.1107 20.0068 58.4629 21.7785L54.2259 26.0695V26.9859H62.1617V25.9593H55.9374V25.86L59.1724 22.6146C61.2757 20.429 61.8636 19.4438 61.8636 18.1109C61.8636 16.2067 60.1604 14.6694 58.0986 14.6694C55.896 14.6694 54.1763 16.3946 54.1597 18.4643Z" fill="white"/>
<path d="M69.5705 26.9859C72.1623 26.9859 73.7661 25.7606 73.7661 23.6826C73.7661 22.0434 72.5266 20.9092 70.8457 20.727V20.6194C72.1126 20.3959 73.1534 19.3279 73.1534 17.9867C73.1534 16.1736 71.682 15.0394 69.4795 15.0394H65.1819V26.9859H69.5705ZM66.438 16.0411H69.2642C70.8954 16.0411 71.889 16.8276 71.889 18.1688C71.889 19.5597 70.8374 20.3048 68.9909 20.3048H66.438V16.0411ZM66.438 25.9842V21.4116H69.2724C71.3508 21.4116 72.4852 22.1096 72.4852 23.6247C72.4852 25.1563 71.4171 25.9842 69.4132 25.9842H66.438Z" fill="white"/>
<path d="M86.5857 27.2343C89.1195 27.2343 91.0074 25.6556 91.3469 23.4617H90.196C89.8647 25.0347 88.4322 26.1829 86.5857 26.1829C84.0685 26.1829 82.4786 24.1794 82.4786 21.0168C82.4786 17.8542 84.0768 15.8425 86.5774 15.8425C88.3743 15.8425 89.8482 17.1231 90.196 18.812H91.3469C91.024 16.5436 89.0367 14.791 86.5774 14.791C83.3398 14.791 81.0761 17.1836 81.0761 21.0168C81.0761 24.8499 83.3398 27.2343 86.5857 27.2343Z" fill="white"/>
<path d="M94.1933 26.9859H95.3997V21.4225C95.3997 20.015 96.4264 19.0935 97.8093 19.0935C98.1322 19.0935 98.5793 19.1432 98.7781 19.2011L99.1429 17.995C98.9028 17.937 98.2398 17.9205 97.9417 17.9205C96.7577 17.9205 95.6341 18.5662 95.336 19.5349H95.35V17.9479H94.1933V26.9859Z" fill="white"/>
<path d="M106.996 24.6621C106.615 25.5397 105.704 26.0447 104.437 26.0447C102.715 26.0447 101.597 24.8748 101.539 22.863V22.8133H108.36V22.3331C108.36 19.6094 106.781 17.9205 104.404 17.9205C101.978 17.9205 100.3 19.7336 100.3 22.5318C100.3 25.3467 101.961 27.1349 104.412 27.1349C106.284 27.1349 107.796 26.1026 108.219 24.6621H106.996ZM104.396 19.0024C106.01 19.0024 107.079 20.0813 107.103 21.9192H101.547C101.647 20.0813 102.773 19.0024 104.396 19.0024Z" fill="white"/>
<path d="M113.582 27.1349C114.891 27.1349 115.984 26.514 116.53 25.4543H116.508V26.9859H117.673V20.8926C117.673 19.0133 116.456 17.9205 114.369 17.9205C112.522 17.9205 111.14 18.9528 110.933 20.3933H112.034C112.249 19.5074 113.127 18.8891 114.336 18.8891C115.777 18.8891 116.458 19.5928 116.458 20.9009V21.7371L113.789 21.9192C111.728 22.0599 110.455 22.9623 110.455 24.5188C110.455 26.1166 111.835 27.1349 113.582 27.1349ZM113.765 26.1746C112.564 26.1746 111.694 25.5288 111.694 24.5022C111.694 23.4839 112.423 22.921 113.938 22.8133L116.458 22.6229V23.6661C116.458 25.0818 115.363 26.1746 113.765 26.1746Z" fill="white"/>
<path d="M121.494 15.6298V18.0695H119.793V18.9885H121.494V24.7672C121.494 26.3898 122.173 27.0356 123.879 27.0356C124.069 27.0356 124.571 27.0108 124.762 26.9776V26.0504C124.58 26.067 124.168 26.0752 123.994 26.0752C122.993 26.0752 122.7 25.6116 122.7 24.5188V18.9885H124.64V18.0695H122.7V15.6298H121.494Z" fill="white"/>
<path d="M128.022 16.215C128.47 16.215 128.834 15.859 128.834 15.4119C128.834 14.9649 128.47 14.6089 128.022 14.6089C127.584 14.6089 127.219 14.9649 127.219 15.4119C127.219 15.859 127.584 16.215 128.022 16.215ZM127.484 26.9859H128.69V18.0695H127.484V26.9859Z" fill="white"/>
<path d="M139.011 18.0695H137.722L135.031 25.6804H134.932L132.232 18.0695H130.952L134.28 26.9859H135.683L139.011 18.0695Z" fill="white"/>
<path d="M147.166 24.6621C146.785 25.5397 145.874 26.1663 144.607 26.1663C142.885 26.1663 141.767 24.8748 141.709 22.863V22.8133H148.529V22.3331C148.529 19.6094 146.95 17.9205 144.574 17.9205C142.148 17.9205 140.469 19.7336 140.469 22.5318C140.469 25.3467 142.131 27.1349 144.582 27.1349C146.453 27.1349 147.966 26.1026 148.389 24.6621H147.166ZM144.566 18.8808C146.18 18.8808 147.248 20.0813 147.273 21.9192H141.717C141.816 20.0813 142.943 18.8808 144.566 18.8808Z" fill="white"/>
<path d="M50.7208 37.2242H50.8864L52.5285 43.8887H55.9374L59.1393 31.9422H55.5291L54.0909 39.3105H53.9253L52.2832 31.9422H49.324L47.7647 39.3105H47.5991L46.1277 31.9422H42.4844L45.6863 43.8887H49.1201L50.7208 37.2242Z" fill="white"/>
<path d="M66.0431 40.9274C65.8941 41.3911 65.3641 42.0291 64.6106 42.0291C63.617 42.0291 63.0125 41.165 63.0125 40.1384V39.9562H69.14L69.2616 39.0704C69.2616 36.0734 67.4259 34.3514 64.4533 34.3514C61.4723 34.3514 59.5704 36.2059 59.5704 39.3187C59.5704 42.3985 61.4227 44.1205 64.5112 44.1205C67.0285 44.1205 68.8087 42.8068 69.0986 40.9274H66.0431ZM64.4781 36.5644C65.3227 36.5644 65.8361 37.1993 65.8941 38.11H63.029C63.0953 37.2407 63.6666 36.5644 64.4781 36.5644Z" fill="white"/>
<path d="M77.6724 44.0212C79.9992 44.0212 81.4539 42.2826 81.4539 39.236C81.4539 36.1645 80.024 34.4507 77.6724 34.4507C76.3972 34.4507 75.4284 35.0468 74.9978 36.09H74.8322V31.1557H71.3156V43.8887H74.7494V42.4482H74.915C75.3208 43.4417 76.3392 44.0212 77.6724 44.0212ZM76.3393 37.0669C77.2584 37.0669 77.9762 37.9196 77.9762 39.236C77.9762 40.5689 77.2667 41.405 76.3393 41.405C75.4036 41.405 74.8239 40.5771 74.8157 39.2442C74.8239 37.9113 75.4201 37.0669 76.3393 37.0669Z" fill="white"/>
<path d="M87.7983 40.1601C87.8149 42.5279 89.7607 44.2199 92.9321 44.2199C96.1946 44.2199 98.2704 42.68 98.2704 40.097C98.2704 38.1597 97.0723 37.0586 94.7455 36.6529L93.1143 36.3714C91.9716 36.1727 91.3614 35.8416 91.3614 35.2703C91.3614 34.608 92.0793 34.1941 92.9901 34.1941C93.9258 34.1941 94.6627 34.7405 94.6876 35.4608L97.9004 35.704C97.8755 33.4107 95.8634 31.611 92.9156 31.611C89.9264 31.611 87.8754 33.184 87.8754 35.6181C87.8754 37.5471 89.1894 38.8055 91.3837 39.1863L92.9653 39.4678C94.2487 39.6996 94.8175 39.9645 94.8175 40.5192C94.8175 41.1898 94.0417 41.6286 93.0563 41.6286C91.9302 41.6286 91.1684 41.1484 91.127 40.4033L87.7983 40.1601Z" fill="white"/>
<path d="M101.252 32.5383V34.7488H99.7308V37.2242H101.252V41.2974C101.252 43.1353 102.4 43.8887 105 43.8887C105.646 43.8887 106.259 43.8308 106.582 43.7645V41.405C106.383 41.4299 106.184 41.4464 105.82 41.4464C105.108 41.4464 104.768 41.1401 104.768 40.5523V37.2242H106.582V34.7488H104.768V32.5383H101.252Z" fill="white"/>
<path d="M118.253 34.5832H114.736V39.8403C114.736 40.7676 114.419 41.3719 113.591 41.3719C112.796 41.3719 112.258 40.8172 112.258 39.8403V34.5832H108.741V40.6765C108.741 42.8125 110.27 44.1205 112.208 44.1205C113.607 44.1205 114.352 43.4831 114.775 42.3654H114.819V43.8887H118.253V34.5832Z" fill="white"/>
<path d="M124.144 44.0212C125.444 44.0212 126.454 43.4334 126.876 42.4482H127.042V43.8887H130.354V31.1557H126.959V36.09H126.793C126.354 35.0551 125.377 34.4507 124.152 34.4507C121.833 34.4507 120.337 36.2224 120.337 39.2111C120.337 42.2247 121.833 44.0212 124.144 44.0212ZM125.452 37.0669C126.404 37.0669 126.975 37.8865 126.975 39.2442C126.975 40.602 126.412 41.405 125.452 41.405C124.5 41.405 123.815 40.5937 123.815 39.236C123.815 37.8865 124.508 37.0669 125.452 37.0669Z" fill="white"/>
<path d="M134.796 33.5069C135.748 33.5069 136.526 32.7618 136.526 31.818C136.526 30.8659 135.748 30.1208 134.796 30.1208C133.852 30.1208 133.065 30.8659 133.065 31.818C133.065 32.7618 133.852 33.5069 134.796 33.5069ZM133.098 43.8887H136.493V34.4616H133.098V43.8887Z" fill="white"/>
<path d="M143.577 44.1205C146.657 44.1205 148.575 42.324 148.575 39.2277C148.575 36.1976 146.607 34.3514 143.577 34.3514C140.562 34.3514 138.578 36.2141 138.578 39.2277C138.578 42.3157 140.505 44.1205 143.577 44.1205ZM143.577 41.5872C142.691 41.5872 142.177 40.7344 142.177 39.236C142.177 37.7789 142.707 36.8847 143.577 36.8847C144.446 36.8847 144.976 37.7789 144.976 39.236C144.976 40.7262 144.463 41.5872 143.577 41.5872Z" fill="white"/>
</svg>
