<svg width="149" height="45" viewBox="0 0 149 45" fill="none" xmlns="http://www.w3.org/2000/svg">
<circle cx="5.31082" cy="16.8914" r="5.31082" fill="#84F8CF"/>
<circle cx="5.31082" cy="16.8914" r="5.31082" fill="#E54D57"/>
<circle cx="16.428" cy="26.6194" r="5.31082" fill="#C1FDE8"/>
<circle cx="16.428" cy="26.6194" r="5.31082" fill="#07D6A5"/>
<circle cx="15.9651" cy="12.3753" r="5.31082" fill="#59C59E"/>
<circle cx="15.9651" cy="12.3753" r="5.31082" fill="#2395FF"/>
<circle cx="5.31082" cy="28.4749" r="5.31082" fill="#A4FCDE"/>
<circle cx="5.31082" cy="28.4749" r="5.31082" fill="#A8DD12"/>
<circle cx="5.31082" cy="39.5579" r="5.31082" fill="#84F8CF"/>
<circle cx="5.31082" cy="39.5579" r="5.31082" fill="#FF7A00"/>
<circle cx="16.428" cy="39.4773" r="5.31082" fill="#A4FCDE"/>
<circle cx="16.428" cy="39.4773" r="5.31082" fill="#FF8E95"/>
<circle cx="26.428" cy="5.31082" r="5.31082" fill="#4AA083"/>
<circle cx="26.428" cy="5.31082" r="5.31082" fill="#7F52FF"/>
<circle cx="27.0823" cy="22.1033" r="5.31082" fill="#59C59E"/>
<circle cx="27.0823" cy="22.1033" r="5.31082" fill="#BB34FB"/>
<circle cx="27.5481" cy="39.4554" r="5.31082" fill="#84F8CF"/>
<circle cx="27.5481" cy="39.4554" r="5.31082" fill="#F0D800"/>
<path d="M47.1781 26.0089C49.7698 26.0089 51.3736 24.7836 51.3736 22.7056C51.3736 21.0663 50.1342 19.9321 48.4533 19.75V19.6424C49.7202 19.4188 50.7609 18.3508 50.7609 17.0096C50.7609 15.1966 49.2896 14.0623 47.087 14.0623H42.7895V26.0089H47.1781ZM44.0455 15.0641H46.8717C48.5029 15.0641 49.4966 15.8506 49.4966 17.1918C49.4966 18.5826 48.445 19.3278 46.5985 19.3278H44.0455V15.0641ZM44.0455 25.0071V20.4346H46.88C48.9584 20.4346 50.0928 21.1326 50.0928 22.6476C50.0928 24.1792 49.0246 25.0071 47.0208 25.0071H44.0455Z" fill="#121212"/>
<path d="M53.8003 17.4872H55.0481C55.0646 15.9722 56.1162 14.8074 57.673 14.8074C59.2048 14.8074 60.2233 15.8589 60.2233 17.2415C60.2233 18.326 59.7513 19.0297 58.1035 20.8014L53.8666 25.0925V26.0089H61.8023V24.9823H55.578V24.8829L58.8131 21.6376C60.9163 19.4519 61.5042 18.4667 61.5042 17.1338C61.5042 15.2297 59.801 13.6924 57.7392 13.6924C55.5366 13.6924 53.8169 15.4175 53.8003 17.4872Z" fill="#121212"/>
<path d="M69.2112 26.0089C71.8029 26.0089 73.4067 24.7836 73.4067 22.7056C73.4067 21.0663 72.1673 19.9321 70.4863 19.75V19.6424C71.7532 19.4188 72.794 18.3508 72.794 17.0096C72.794 15.1966 71.3227 14.0623 69.1201 14.0623H64.8226V26.0089H69.2112ZM66.0786 15.0641H68.9048C70.536 15.0641 71.5297 15.8506 71.5297 17.1918C71.5297 18.5826 70.4781 19.3278 68.6315 19.3278H66.0786V15.0641ZM66.0786 25.0071V20.4346H68.9131C70.9914 20.4346 72.1259 21.1326 72.1259 22.6476C72.1259 24.1792 71.0577 25.0071 69.0538 25.0071H66.0786Z" fill="#121212"/>
<path d="M86.2263 26.2572C88.7601 26.2572 90.6481 24.6785 90.9876 22.4846H89.8366C89.5054 24.0576 88.0729 25.2058 86.2263 25.2058C83.7091 25.2058 82.1193 23.2023 82.1193 20.0397C82.1193 16.8772 83.7174 14.8654 86.2181 14.8654C88.0149 14.8654 89.4888 16.1461 89.8366 17.835H90.9876C90.6646 15.5665 88.6773 13.814 86.2181 13.814C82.9804 13.814 80.7168 16.2066 80.7168 20.0397C80.7168 23.8729 82.9804 26.2572 86.2263 26.2572Z" fill="#121212"/>
<path d="M93.8339 26.0089H95.0403V20.4454C95.0403 19.038 96.0671 18.1164 97.4499 18.1164C97.7728 18.1164 98.22 18.1661 98.4187 18.2241L98.7836 17.0179C98.5434 16.96 97.8805 16.9434 97.5824 16.9434C96.3983 16.9434 95.2747 17.5892 94.9766 18.5578H94.9906V16.9708H93.8339V26.0089Z" fill="#121212"/>
<path d="M106.636 23.6851C106.256 24.5626 105.345 25.0676 104.078 25.0676C102.356 25.0676 101.238 23.8977 101.18 21.8859V21.8363H108V21.3561C108 18.6323 106.421 16.9434 104.045 16.9434C101.619 16.9434 99.9402 18.7565 99.9402 21.5548C99.9402 24.3696 101.602 26.1579 104.053 26.1579C105.924 26.1579 107.437 25.1256 107.859 23.6851H106.636ZM104.036 18.0254C105.651 18.0254 106.719 19.1042 106.744 20.9421H101.188C101.287 19.1042 102.413 18.0254 104.036 18.0254Z" fill="#121212"/>
<path d="M113.223 26.1579C114.531 26.1579 115.624 25.537 116.171 24.4773H116.149V26.0089H117.314V19.9156C117.314 18.0362 116.096 16.9434 114.01 16.9434C112.163 16.9434 110.78 17.9757 110.573 19.4162H111.675C111.89 18.5304 112.768 17.9121 113.977 17.9121C115.417 17.9121 116.099 18.6158 116.099 19.9238V20.76L113.43 20.9421C111.368 21.0829 110.096 21.9853 110.096 23.5417C110.096 25.1396 111.476 26.1579 113.223 26.1579ZM113.405 25.1975C112.205 25.1975 111.335 24.5518 111.335 23.5252C111.335 22.5069 112.064 21.9439 113.579 21.8363L116.099 21.6459V22.689C116.099 24.1047 115.003 25.1975 113.405 25.1975Z" fill="#121212"/>
<path d="M121.134 14.6527V17.0924H119.434V18.0114H121.134V23.7901C121.134 25.4128 121.813 26.0585 123.519 26.0585C123.71 26.0585 124.212 26.0337 124.403 26.0006V25.0733C124.22 25.0899 123.809 25.0982 123.635 25.0982C122.633 25.0982 122.341 24.6346 122.341 23.5417V18.0114H124.281V17.0924H122.341V14.6527H121.134Z" fill="#121212"/>
<path d="M127.663 15.238C128.11 15.238 128.474 14.882 128.474 14.4349C128.474 13.9878 128.11 13.6318 127.663 13.6318C127.224 13.6318 126.86 13.9878 126.86 14.4349C126.86 14.882 127.224 15.238 127.663 15.238ZM127.125 26.0089H128.331V17.0924H127.125V26.0089Z" fill="#121212"/>
<path d="M138.652 17.0924H137.363L134.672 24.7034H134.572L131.873 17.0924H130.592L133.921 26.0089H135.323L138.652 17.0924Z" fill="#121212"/>
<path d="M146.806 23.6851C146.425 24.5626 145.514 25.1892 144.248 25.1892C142.525 25.1892 141.407 23.8977 141.349 21.8859V21.8363H148.17V21.3561C148.17 18.6323 146.591 16.9434 144.214 16.9434C141.788 16.9434 140.11 18.7565 140.11 21.5548C140.11 24.3696 141.772 26.1579 144.223 26.1579C146.094 26.1579 147.607 25.1256 148.029 23.6851H146.806ZM144.206 17.9038C145.821 17.9038 146.889 19.1042 146.914 20.9421H141.358C141.457 19.1042 142.583 17.9038 144.206 17.9038Z" fill="#121212"/>
<path d="M50.3614 36.2471H50.527L52.1691 42.9117H55.578L58.78 30.9652H55.1697L53.7315 38.3334H53.5659L51.9238 30.9652H48.9646L47.4053 38.3334H47.2397L45.7684 30.9652H42.125L45.3269 42.9117H48.7607L50.3614 36.2471Z" fill="#121212"/>
<path d="M65.6837 39.9504C65.5347 40.414 65.0047 41.052 64.2512 41.052C63.2576 41.052 62.6531 40.1879 62.6531 39.1613V38.9792H68.7806L68.9022 38.0933C68.9022 35.0963 67.0665 33.3743 64.0939 33.3743C61.113 33.3743 59.2111 35.2288 59.2111 38.3417C59.2111 41.4215 61.0633 43.1435 64.1519 43.1435C66.6691 43.1435 68.4494 41.8297 68.7392 39.9504H65.6837ZM64.1187 35.5874C64.9633 35.5874 65.4767 36.2223 65.5347 37.133H62.6697C62.7359 36.2637 63.3073 35.5874 64.1187 35.5874Z" fill="#121212"/>
<path d="M77.313 43.0441C79.6398 43.0441 81.0946 41.3056 81.0946 38.2589C81.0946 35.1874 79.6646 33.4737 77.313 33.4737C76.0378 33.4737 75.069 34.0698 74.6385 35.1129H74.4728V30.1787H70.9563V42.9117H74.39V41.4711H74.5557C74.9614 42.4646 75.9799 43.0441 77.313 43.0441ZM75.9799 36.0898C76.899 36.0898 77.6168 36.9426 77.6168 38.2589C77.6168 39.5918 76.9073 40.428 75.9799 40.428C75.0442 40.428 74.4646 39.6001 74.4563 38.2672C74.4646 36.9343 75.0608 36.0898 75.9799 36.0898Z" fill="#121212"/>
<path d="M87.4389 39.183C87.4555 41.5508 89.4014 43.2428 92.5728 43.2428C95.8352 43.2428 97.911 41.7029 97.911 39.1199C97.911 37.1826 96.7129 36.0815 94.3862 35.6759L92.7549 35.3944C91.6122 35.1957 91.0021 34.8645 91.0021 34.2933C91.0021 33.631 91.7199 33.217 92.6307 33.217C93.5664 33.217 94.3034 33.7634 94.3282 34.4837L97.541 34.7269C97.5161 32.4336 95.504 30.634 92.5562 30.634C89.567 30.634 87.516 32.207 87.516 34.641C87.516 36.57 88.83 37.8284 91.0243 38.2092L92.6059 38.4907C93.8893 38.7225 94.4581 38.9875 94.4581 39.5421C94.4581 40.2127 93.6823 40.6515 92.697 40.6515C91.5708 40.6515 90.809 40.1713 90.7676 39.4262L87.4389 39.183Z" fill="#121212"/>
<path d="M100.892 31.5612V33.7717H99.3715V36.2471H100.892V40.3204C100.892 42.1583 102.041 42.9117 104.641 42.9117C105.287 42.9117 105.9 42.8537 106.222 42.7875V40.428C106.024 40.4528 105.825 40.4694 105.461 40.4694C104.749 40.4694 104.409 40.1631 104.409 39.5753V36.2471H106.222V33.7717H104.409V31.5612H100.892Z" fill="#121212"/>
<path d="M117.893 33.6061H114.377V38.8633C114.377 39.7905 114.059 40.3949 113.231 40.3949C112.436 40.3949 111.898 39.8402 111.898 38.8633V33.6061H108.382V39.6994C108.382 41.8354 109.911 43.1435 111.848 43.1435C113.248 43.1435 113.993 42.506 114.415 41.3883H114.459V42.9117H117.893V33.6061Z" fill="#121212"/>
<path d="M123.784 43.0441C125.084 43.0441 126.094 42.4563 126.517 41.4711H126.682V42.9117H129.994V30.1787H126.599V35.1129H126.434C125.995 34.078 125.018 33.4737 123.792 33.4737C121.474 33.4737 119.978 35.2454 119.978 38.2341C119.978 41.2476 121.474 43.0441 123.784 43.0441ZM125.092 36.0898C126.045 36.0898 126.616 36.9094 126.616 38.2672C126.616 39.6249 126.053 40.428 125.092 40.428C124.14 40.428 123.455 39.6167 123.455 38.2589C123.455 36.9094 124.148 36.0898 125.092 36.0898Z" fill="#121212"/>
<path d="M134.436 32.5299C135.389 32.5299 136.167 31.7848 136.167 30.841C136.167 29.8889 135.389 29.1438 134.436 29.1438C133.492 29.1438 132.706 29.8889 132.706 30.841C132.706 31.7848 133.492 32.5299 134.436 32.5299ZM132.739 42.9117H136.134V33.4845H132.739V42.9117Z" fill="#121212"/>
<path d="M143.217 43.1435C146.297 43.1435 148.216 41.347 148.216 38.2506C148.216 35.2205 146.248 33.3743 143.217 33.3743C140.203 33.3743 138.218 35.2371 138.218 38.2506C138.218 41.3387 140.145 43.1435 143.217 43.1435ZM143.217 40.6101C142.331 40.6101 141.818 39.7574 141.818 38.2589C141.818 36.8018 142.348 35.9077 143.217 35.9077C144.087 35.9077 144.617 36.8018 144.617 38.2589C144.617 39.7491 144.103 40.6101 143.217 40.6101Z" fill="#121212"/>
</svg>
